# xmcd
#
# Track frame offsets:
#	150
#	23211
#	44711
#	70921
#	89461
#	111926
#	140554
#	170141
#	185844
#	209061
#	233607
#
# Disc length: 3366 seconds
#
# Revision: 0
# Processed by: cddbd v1.5.2PL0 Copyright (c) Steve Scherf et al.
# Submitted via: EZCDAudioConverter 1.3.4.1
#
DISCID=ac0d240b
DTITLE=Vinegar Joe - Vinegar Joe (1972)
DYEAR=1900
DGENRE=
TTITLE0=Rusty Red Armour
TTITLE1=Early Monday Morning
TTITLE2=Ride Me Easy Rider
TTITLE3=Circles
TTITLE4=Leg Up
TTITLE5=See The World (Through My Eyes)
TTITLE6=Never Met A Dog (That Took To Me)
TTITLE7=Avinu Malkenu
TTITLE8=Gettin' Out
TTITLE9=Live A Little, Get Somewhere
TTITLE10=Speed Queen Of Ventura
EXTD=
EXTT0=
EXTT1=
EXTT2=
EXTT3=
EXTT4=
EXTT5=
EXTT6=
EXTT7=
EXTT8=
EXTT9=
EXTT10=
PLAYORDER=
